<svg width="40" height="40" viewBox="0 0 40 40" fill="none" xmlns="http://www.w3.org/2000/svg">
<path d="M33.3333 11.6667H6.66665C4.8257 11.6667 3.33331 13.1591 3.33331 15.0001V31.6667C3.33331 33.5077 4.8257 35.0001 6.66665 35.0001H33.3333C35.1743 35.0001 36.6666 33.5077 36.6666 31.6667V15.0001C36.6666 13.1591 35.1743 11.6667 33.3333 11.6667Z" stroke="#08A652" stroke-width="1.5"/>
<path d="M26.6667 35V8.33333C26.6667 7.44928 26.3155 6.60143 25.6904 5.97631C25.0653 5.35119 24.2174 5 23.3334 5H16.6667C15.7827 5 14.9348 5.35119 14.3097 5.97631C13.6846 6.60143 13.3334 7.44928 13.3334 8.33333V35" stroke="#08A652" stroke-width="1.5"/>
</svg>
