<svg width="40" height="40" viewBox="0 0 40 40" fill="none" xmlns="http://www.w3.org/2000/svg">
<path d="M28.3333 3.33337H32.7833C33.7266 3.31668 34.6432 3.64692 35.359 4.2614C36.0749 4.87587 36.5402 5.7318 36.6667 6.6667V18.3334C36.5402 19.2683 36.0749 20.1242 35.359 20.7387C34.6432 21.3531 33.7266 21.6834 32.7833 21.6667H28.3333M16.6667 25V31.6667C16.6667 32.9928 17.1934 34.2646 18.1311 35.2022C19.0688 36.1399 20.3406 36.6667 21.6667 36.6667L28.3333 21.6667V3.33337H9.53332C8.72944 3.32428 7.94936 3.60602 7.33681 4.12669C6.72427 4.64735 6.32053 5.37186 6.19999 6.1667L3.89999 21.1667C3.82748 21.6444 3.8597 22.1322 3.99442 22.5963C4.12915 23.0603 4.36315 23.4895 4.68023 23.8542C4.9973 24.2188 5.38986 24.5101 5.8307 24.708C6.27155 24.9059 6.75014 25.0055 7.23332 25H16.6667Z" stroke="#FC2155" stroke-width="1.5"/>
</svg>
