<svg width="40" height="40" viewBox="0 0 40 40" fill="none" xmlns="http://www.w3.org/2000/svg">
<path d="M11.6667 36.6666H6.66666C5.78261 36.6666 4.93476 36.3154 4.30964 35.6903C3.68452 35.0652 3.33333 34.2173 3.33333 33.3333V21.6666C3.33333 20.7825 3.68452 19.9347 4.30964 19.3096C4.93476 18.6844 5.78261 18.3333 6.66666 18.3333H11.6667M23.3333 14.9999V8.33325C23.3333 7.00717 22.8065 5.7354 21.8689 4.79772C20.9312 3.86004 19.6594 3.33325 18.3333 3.33325L11.6667 18.3333V36.6666H30.4667C31.2705 36.6757 32.0506 36.3939 32.6632 35.8733C33.2757 35.3526 33.6795 34.6281 33.8 33.8332L36.1 18.8333C36.1725 18.3555 36.1403 17.8677 36.0056 17.4037C35.8708 16.9396 35.6368 16.5104 35.3198 16.1458C35.0027 15.7811 34.6101 15.4898 34.1693 15.2919C33.7284 15.0941 33.2498 14.9944 32.7667 14.9999H23.3333Z" stroke="#08A652" stroke-width="1.5"/>
</svg>
