<svg width="40" height="40" viewBox="0 0 40 40" fill="none" xmlns="http://www.w3.org/2000/svg">
<path d="M38.3333 6.66675V16.6667H28.3333" stroke="#08A652" stroke-width="1.5"/>
<path d="M1.66666 33.3333V23.3333H11.6667" stroke="#08A652" stroke-width="1.5"/>
<path d="M5.84999 15C6.69527 12.6113 8.13188 10.4756 10.0258 8.79233C11.9197 7.10902 14.2091 5.93291 16.6805 5.37373C19.1518 4.81455 21.7246 4.89053 24.1586 5.59459C26.5927 6.29864 28.8087 7.60782 30.6 9.39996L38.3333 16.6666M1.66666 23.3333L9.39999 30.6C11.1912 32.3921 13.4073 33.7013 15.8413 34.4053C18.2754 35.1094 20.8481 35.1854 23.3195 34.6262C25.7909 34.067 28.0803 32.8909 29.9742 31.2076C31.8681 29.5243 33.3047 27.3887 34.15 25" stroke="#08A652" stroke-width="1.5"/>
</svg>
